<?xml version="1.0" encoding="UTF-8" standalone="no"?>
<!DOCTYPE svg PUBLIC "-//W3C//DTD SVG 1.1//EN" "http://www.w3.org/Graphics/SVG/1.1/DTD/svg11.dtd">
<svg width="100%" height="100%" viewBox="0 0 37 38" version="1.1" xmlns="http://www.w3.org/2000/svg" xmlns:xlink="http://www.w3.org/1999/xlink" xml:space="preserve" xmlns:serif="http://www.serif.com/" style="fill-rule:evenodd;clip-rule:evenodd;stroke-linecap:round;">
    <g transform="matrix(1,0,0,1,-381.981,-281.229)">
        <g transform="matrix(1,0,0,1,385.758,285.846)">
            <path d="M15.585,23.06L19.168,19.249C19.5,18.896 20.022,18.847 20.407,19.133L25.662,23.03C26.156,23.397 26.219,24.15 25.792,24.604L24.595,25.878C23.907,26.61 22.923,26.927 21.991,26.629C19.431,25.812 14.076,23.665 9.688,18.998C5.3,14.331 3.281,8.635 2.513,5.913C2.233,4.922 2.531,3.876 3.219,3.144L4.417,1.87C4.843,1.416 5.551,1.483 5.896,2.009L9.561,7.598C9.83,8.007 9.784,8.562 9.452,8.915L5.869,12.726" style="fill:none;fill-rule:nonzero;stroke:white;stroke-width:3px;"/>
        </g>
    </g>
</svg>
